<svg width="46" height="46" viewBox="0 0 46 46" fill="none" xmlns="http://www.w3.org/2000/svg">
<rect width="46" height="46" rx="23" fill="#4EA8DE"/>
<g clip-path="url(#clip0_5_1211)">
<path d="M29.9807 31.1757H16.0195C15.735 31.1757 15.5073 31.4033 15.5073 31.6878C15.5073 31.9724 15.735 32.2 16.0195 32.2H29.9807C30.2653 32.2 30.4929 31.9724 30.4929 31.6878C30.4929 31.4033 30.2653 31.1757 29.9807 31.1757Z" fill="white"/>
<path d="M22.6397 28.1672C22.7345 28.262 22.8673 28.3189 23.0001 28.3189C23.1329 28.3189 23.2657 28.2658 23.3605 28.1672L27.4388 24.0888C27.6399 23.8878 27.6399 23.5653 27.4388 23.3642C27.2378 23.1631 26.9153 23.1631 26.7142 23.3642L23.5123 26.5662V14.3122C23.5123 14.0276 23.2846 13.8 23.0001 13.8C22.7156 13.8 22.4879 14.0276 22.4879 14.3122V26.5662L19.2859 23.3642C19.0849 23.1631 18.7624 23.1631 18.5613 23.3642C18.3603 23.5653 18.3603 23.8878 18.5613 24.0888L22.6397 28.1672Z" fill="white"/>
</g>
<defs>
<clipPath id="clip0_5_1211">
<rect width="18.4" height="18.4" fill="white" transform="translate(13.8 13.8)"/>
</clipPath>
</defs>
</svg>
