<svg width="12" height="13" viewBox="0 0 12 13" fill="none" xmlns="http://www.w3.org/2000/svg">
<path d="M5.10211 11.3227L5.69669 11.8977C5.94844 12.1412 6.35554 12.1412 6.60462 11.8977L11.8112 6.86476C12.0629 6.62127 12.0629 6.22755 11.8112 5.98665L6.6073 0.953704C6.35554 0.710216 5.94844 0.710216 5.69936 0.953704L5.10479 1.52875C4.85035 1.77483 4.85571 2.17632 5.1155 2.41722L8.34014 5.38829L0.642787 5.38829C0.286577 5.38829 1.22641e-06 5.66545 1.21176e-06 6.00996L1.17652e-06 6.83886C1.16187e-06 7.18337 0.286576 7.46053 0.642787 7.46053L8.34014 7.46053L5.11282 10.4342C4.85035 10.6751 4.845 11.0766 5.10211 11.3227Z" fill="#76FFD5"/>
</svg>
